<svg width="600" height="400" xmlns="http://www.w3.org/2000/svg">
  <rect width="100%" height="100%" fill="#f9f9f9"/>
  <g transform="translate(50,30)">
    <text x="200" y="-10" font-size="16" font-weight="bold" text-anchor="middle">Evolução da Taxa de Churn ao Longo dos Meses</text>
    <line x1="0" y1="300" x2="500" y2="300" stroke="#ccc" stroke-width="1"/>
    <line x1="0" y1="0" x2="0" y2="300" stroke="#ccc" stroke-width="1"/>
    
    <text x="0" y="315" text-anchor="middle">Jan</text>
    <text x="50" y="315" text-anchor="middle">Fev</text>
    <text x="100" y="315" text-anchor="middle">Mar</text>
    <text x="150" y="315" text-anchor="middle">Abr</text>
    <text x="200" y="315" text-anchor="middle">Mai</text>
    <text x="250" y="315" text-anchor="middle">Jun</text>
    <text x="300" y="315" text-anchor="middle">Jul</text>
    <text x="350" y="315" text-anchor="middle">Ago</text>
    <text x="400" y="315" text-anchor="middle">Set</text>
    <text x="450" y="315" text-anchor="middle">Out</text>
    <text x="500" y="315" text-anchor="middle">Nov</text>

    <text x="-20" y="300" text-anchor="end">0%</text>
    <text x="-20" y="240" text-anchor="end">5%</text>
    <text x="-20" y="180" text-anchor="end">10%</text>
    <text x="-20" y="120" text-anchor="end">15%</text>
    <text x="-20" y="60" text-anchor="end">20%</text>
    <text x="-20" y="0" text-anchor="end">25%</text>

    <path d="M 0 240 L 50 220 L 100 210 L 150 180 L 200 170 L 250 140 L 300 130 L 350 120 L 400 110 L 450 100 L 500 90" stroke="blue" fill="none" stroke-width="2"/>
    <circle cx="0" cy="240" r="4" fill="blue"/>
    <circle cx="50" cy="220" r="4" fill="blue"/>
    <circle cx="100" cy="210" r="4" fill="blue"/>
    <circle cx="150" cy="180" r="4" fill="blue"/>
    <circle cx="200" cy="170" r="4" fill="blue"/>
    <circle cx="250" cy="140" r="4" fill="blue"/>
    <circle cx="300" cy="130" r="4" fill="blue"/>
    <circle cx="350" cy="120" r="4" fill="blue"/>
    <circle cx="400" cy="110" r="4" fill="blue"/>
    <circle cx="450" cy="100" r="4" fill="blue"/>
    <circle cx="500" cy="90" r="4" fill="blue"/>

    <line x1="0" y1="240" x2="500" y2="240" stroke="red" stroke-dasharray="5,5"/>
    <text x="510" y="240" fill="red" font-size="12">Média de Churn</text>

    <!-- Rótulos de dados -->
    <text x="0" y="230" font-size="10" fill="black" text-anchor="middle">20%</text>
    <text x="50" y="210" font-size="10" fill="black" text-anchor="middle">18%</text>
    <text x="100" y="200" font-size="10" fill="black" text-anchor="middle">17%</text>
    <text x="150" y="170" font-size="10" fill="black" text-anchor="middle">15%</text>
    <text x="200" y="160" font-size="10" fill="black" text-anchor="middle">14%</text>
    <text x="250" y="130" font-size="10" fill="black" text-anchor="middle">12%</text>
    <text x="300" y="120" font-size="10" fill="black" text-anchor="middle">10%</text>
    <text x="350" y="110" font-size="10" fill="black" text-anchor="middle">9%</text>
    <text x="400" y="100" font-size="10" fill="black" text-anchor="middle">8%</text>
    <text x="450" y="90" font-size="10" fill="black" text-anchor="middle">7%</text>
    <text x="500" y="80" font-size="10" fill="black" text-anchor="middle">6%</text>
  </g>
</svg>
